<svg width="101" height="100" viewBox="0 0 101 100" fill="none" xmlns="http://www.w3.org/2000/svg">
<path d="M45.3298 56.0524C45.361 55.8061 45.3884 55.6772 45.3884 55.5482C45.4939 49.6114 47.3582 47.9464 53.2598 48.4741C54.3034 48.5679 55.1007 48.9743 55.0694 50.0687C55.0421 51.0458 54.2877 51.4952 53.3263 51.5343C53.1309 51.5421 52.9354 51.546 52.74 51.5382C48.0852 51.3897 48.3627 51.5578 48.3627 56.1071C48.3666 66.5893 48.3627 77.0677 48.3666 87.5499C48.3666 90.2936 48.6831 90.6062 51.3838 90.6101C65.6415 90.6141 79.8954 90.6141 94.1531 90.6101C96.7482 90.6101 97.1156 90.2623 97.1195 87.6945C97.1273 76.5635 97.1273 65.4324 97.1195 54.2975C97.1156 51.8392 96.7873 51.5421 94.2586 51.5382C83.194 51.5343 72.1255 51.5382 61.0609 51.5343C60.5411 51.5343 60.0135 51.5695 59.5015 51.5069C58.6338 51.4014 58.0046 50.8972 57.9968 50.0061C57.9929 49.1189 58.6065 48.6069 59.482 48.4975C59.9314 48.4428 60.3926 48.4741 60.846 48.4741C71.977 48.4741 83.108 48.4701 94.2391 48.4741C98.3311 48.4741 100.09 50.2055 100.09 54.2311C100.09 65.4285 100.242 76.6299 99.9844 87.8196C99.9179 90.6571 100.121 93.4672 100.09 96.289C100.063 98.892 99.0151 99.9941 96.4668 99.9941C65.5477 100.002 34.6247 100.002 3.70567 99.9941C1.25903 99.9941 0.113878 98.8607 0.0904279 96.461C0.0708861 94.3778 0.106061 92.2947 0.0787028 90.2115C0.0630693 89.1484 0.438273 88.3472 1.54825 88.3198C2.71294 88.2925 3.03343 89.2031 3.04515 90.1998C3.06469 92.0211 3.09596 93.8463 3.03734 95.6676C3.00998 96.6251 3.22494 97.0785 4.31146 97.0511C6.84799 96.9808 9.38843 96.9964 11.925 97.0472C12.8004 97.0629 13.074 96.7463 13.0037 95.9177C12.949 95.2728 12.9685 94.6162 12.9998 93.9674C13.0975 91.7983 14.27 90.6258 16.4352 90.6062C19.6244 90.5789 22.8137 90.5711 26.0029 90.6141C26.9487 90.6258 27.3317 90.3991 27.4724 89.3556C27.8594 86.4634 28.3948 83.5907 28.942 80.722C29.3094 78.7952 27.9258 77.6187 27.1207 76.1961C26.8432 75.7076 26.4328 76.1805 26.1045 76.2704C24.0448 76.8332 22.7863 76.2586 21.9499 74.2185C20.3788 70.3883 18.8115 66.5542 17.338 62.6849C16.9355 61.6335 16.4782 61.1958 15.2822 61.1919C8.00878 61.1723 3.13895 65.878 3.06079 73.1593C3.02561 76.4775 3.04515 79.7996 3.05688 83.1178C3.06079 84.2512 2.86537 85.3808 1.49744 85.3495C0.117786 85.3182 0.0278941 84.1653 0.0787028 83.0475C0.278029 78.5724 -0.425476 74.0504 0.457814 69.6144C1.77884 62.9663 7.59058 58.1004 14.356 58.2684C17.8031 58.3544 20.5898 56.7871 23.6227 55.7632C24.0878 55.6068 24.3731 55.2824 24.3106 54.7313C24.2832 54.4734 24.2832 54.2076 24.3106 53.9497C24.6428 50.7565 24.2441 48.1145 21.2542 45.8984C18.3386 43.7332 16.998 40.2235 16.5173 36.577C16.3649 35.4357 15.8841 35.2638 14.8875 35.2247C11.4012 35.0957 9.83789 33.4347 9.81835 29.9758C9.80663 28.088 9.7949 26.2003 9.82226 24.3125C9.86134 21.3695 11.5771 19.4662 14.4849 19.4896C16.0835 19.5013 16.2281 18.8682 16.2281 17.5472C16.232 14.4283 15.931 11.2938 16.4 8.19052C17.1387 3.30506 20.9885 0.0259447 25.9834 0.0103113C31.1893 -0.00532218 36.3991 -0.00141382 41.6051 0.0103113C47.3308 0.018128 51.4581 4.01248 51.5949 9.73042C51.6613 12.5288 51.6457 15.3311 51.5871 18.1256C51.5675 19.1222 51.8255 19.4388 52.8807 19.4857C56.5272 19.642 57.9538 21.2171 57.9733 24.891C57.9851 26.7787 58.0124 28.6665 57.9655 30.5542C57.8952 33.3839 56.1677 35.2247 53.3263 35.213C51.7903 35.2052 51.4424 35.7328 51.1962 37.1632C50.438 41.5602 48.1399 45.1363 44.5911 47.8292C43.6922 48.5092 43.3678 49.1697 43.4342 50.2289C43.5124 51.3975 43.5515 52.5817 43.4264 53.7386C43.274 55.1847 43.7625 55.9703 45.3298 56.0524ZM48.5503 28.4085C48.5503 25.3834 48.5073 22.9094 48.5698 20.4393C48.5972 19.4505 48.3431 19.1418 47.2957 19.1144C43.9423 19.0323 42.293 17.426 42.2031 14.0922C42.1679 12.8454 41.7497 12.5796 40.6045 12.5913C36.1803 12.6461 31.756 12.6539 27.3317 12.5874C26.1006 12.5679 25.6707 12.8532 25.6238 14.186C25.5065 17.4143 23.7869 19.1144 20.6054 19.1027C19.2375 19.0988 19.2023 19.6694 19.2102 20.7051C19.2492 25.1294 19.2102 29.5537 19.2336 33.9779C19.2727 41.267 24.932 47.665 31.9827 48.4232C39.6783 49.2479 46.4358 44.5383 48.1751 37.1867C48.9059 34.0913 48.3353 30.9607 48.5503 28.4085ZM33.8939 9.73823C37.5365 9.73823 41.1752 9.74214 44.8178 9.73433C45.5721 9.73433 46.3069 9.80468 46.5453 10.6528C46.7759 11.4696 46.5804 12.0911 45.7128 12.5679C44.7396 13.1033 44.8021 14.9285 45.705 15.6985C46.4241 16.3121 47.323 16.23 48.1203 16.0737C48.945 15.9095 48.5151 15.0966 48.5307 14.5924C48.5815 12.775 48.5933 10.9498 48.5307 9.13244C48.4252 6.05265 46.0411 3.29334 42.9691 3.12528C36.9268 2.79698 30.8766 2.80088 24.8382 3.12528C21.7858 3.28943 19.3665 6.06046 19.2492 9.13244C19.175 11.0788 19.2258 13.033 19.2336 14.9833C19.2336 15.3546 19.1007 15.976 19.472 16.0268C20.4686 16.1558 21.6802 16.488 22.3212 15.4054C22.8528 14.5104 23.3296 13.3105 22.1063 12.5757C21.2738 12.0754 20.9924 11.5048 21.2425 10.6762C21.4887 9.85939 22.1961 9.73042 22.9661 9.73433C26.6126 9.74605 30.2513 9.73823 33.8939 9.73823ZM72.9463 93.5297C65.3328 93.5297 57.7232 93.5805 50.1097 93.4906C48.5503 93.4711 48.3275 94.0182 48.3079 95.3862C48.2884 96.8088 48.7769 97.0824 50.0941 97.0785C65.1882 97.0355 80.2823 97.0355 95.3764 97.0785C96.6701 97.0824 97.2133 96.8596 97.1781 95.4057C97.143 94.0651 96.9788 93.4711 95.392 93.4906C87.9114 93.5805 80.4269 93.5297 72.9463 93.5297ZM33.8978 66.6245C35.6097 63.8808 36.9893 61.1997 38.8145 58.8742C40.6593 56.5253 40.5186 53.9692 40.5029 51.3233C40.499 50.5259 40.2606 50.2914 39.4555 50.5689C35.7777 51.8352 32.0843 51.8079 28.3909 50.608C27.9805 50.4751 27.3552 50.1429 27.3865 50.8894C27.4763 52.8671 26.7494 54.9737 27.8086 56.8028C29.6963 60.0428 31.756 63.1851 33.8978 66.6245ZM30.7672 97.0472C35.1876 97.0472 39.6079 96.9612 44.0205 97.0902C45.6737 97.141 45.3767 96.2187 45.404 95.265C45.4314 94.2449 45.533 93.4672 43.9657 93.4828C35.1289 93.5727 26.2921 93.5688 17.4553 93.4867C15.8333 93.4711 16.0756 94.3465 16.0444 95.3197C16.0092 96.3711 15.9701 97.1293 17.51 97.0863C21.9265 96.9691 26.3468 97.0472 30.7672 97.0472ZM25.1509 73.4173C25.2759 73.3547 25.3971 73.3117 25.5026 73.2414C27.4451 71.9477 29.3836 70.6423 31.3339 69.3525C32.0413 68.8875 31.5606 68.4771 31.3026 68.0628C30.0715 66.0812 28.8286 64.1036 27.5936 62.1221C24.9711 57.9245 24.9828 57.9401 20.5234 60.164C19.8472 60.5001 19.7222 60.7659 20.0075 61.4576C21.5278 65.1667 22.9856 68.9031 24.5021 72.616C24.6154 72.9092 24.5724 73.4563 25.1509 73.4173ZM42.6838 73.4876C45.5994 69.4151 45.5486 64.8853 45.4236 60.3164C45.3845 58.8312 44.1299 59.1126 43.399 58.6593C42.6369 58.1863 42.2734 58.8 41.9099 59.3862C40.1395 62.255 38.3651 65.1198 36.5438 67.9573C36.0826 68.6725 35.9536 69.0868 36.8291 69.6222C38.8145 70.8338 40.7218 72.1783 42.6838 73.4876ZM45.4431 90.5281C45.4431 85.498 45.4431 80.5852 45.4431 75.3832C44.0244 76.4892 42.7346 76.9621 41.3002 76.1375C41.0501 75.9929 40.8039 75.9108 40.6593 76.2117C39.9479 77.6735 38.4159 78.7795 38.8497 80.7376C39.2562 82.5706 39.5493 84.431 39.8698 86.2836C40.6554 90.8212 40.6475 90.8212 45.3024 90.5828C45.3688 90.5789 45.4275 90.5359 45.4431 90.5281ZM30.2513 90.6141C32.4791 90.6141 34.5466 90.5906 36.6102 90.6258C37.4036 90.6375 37.556 90.4108 37.3997 89.6135C36.8994 87.0809 36.3366 84.5444 36.1217 81.9805C35.9536 79.9677 34.6365 80.6751 33.6281 80.5735C32.6158 80.4718 31.8303 80.4679 31.67 81.9492C31.3691 84.7671 30.7711 87.5499 30.2513 90.6141ZM33.8196 77.693C36.2819 77.693 37.3997 77.0755 37.9703 74.7226C38.3299 73.2453 36.4343 73.2375 35.7035 72.4167C35.4142 72.0884 34.9765 71.8813 34.5857 71.6585C33.8431 71.2442 29.5947 73.6088 29.5986 74.4295C29.5986 74.5429 29.7393 74.6484 29.7823 74.7695C30.5249 76.9348 31.5684 77.693 33.8196 77.693ZM51.6066 27.365C51.6066 28.471 51.5284 29.5849 51.6379 30.6793C51.7004 31.2929 51.0243 32.356 52.4547 32.4029C53.6741 32.4419 54.8857 32.1762 54.9952 30.859C55.1867 28.5375 55.1867 26.1768 54.9952 23.8553C54.8857 22.542 53.6663 22.2724 52.4469 22.3193C51.0321 22.374 51.6965 23.4371 51.6379 24.0546C51.5284 25.1489 51.6066 26.2589 51.6066 27.365ZM16.2046 27.3728C16.2046 26.2706 16.2789 25.1607 16.1773 24.0663C16.1186 23.441 16.744 22.3857 15.3643 22.3232C14.1605 22.2685 12.9372 22.503 12.8317 23.8553C12.6519 26.1729 12.6519 28.5218 12.8239 30.8434C12.9216 32.1918 14.1215 32.4615 15.337 32.395C16.8651 32.313 16.0874 31.1561 16.1694 30.4878C16.2984 29.4638 16.2046 28.4124 16.2046 27.3728Z" fill="#161717"/>
<path d="M79.3007 0.00422104C82.4196 0.00422104 85.5424 -0.00750406 88.6613 0.0081294C93.3435 0.0315796 96.7868 3.32242 96.8923 8.03982C96.9861 12.2648 96.9783 16.4897 96.8962 20.7147C96.8063 25.4985 93.3669 28.8792 88.5401 28.8441C86.8126 28.8323 85.4525 29.2544 84.1198 30.341C81.7552 32.2678 79.2577 34.0266 76.8346 35.8791C75.6151 36.8093 74.3215 37.2939 72.8754 36.524C71.5075 35.797 71.144 34.5073 71.2104 33.0495C71.2143 32.983 71.2104 32.9205 71.2104 32.854C71.2026 31.6854 71.5387 30.3644 71.1049 29.3834C70.5694 28.1757 69.0374 28.9848 67.9587 28.7034C64.0894 27.6989 61.6388 24.9083 61.5372 20.7342C61.4317 16.5132 61.4161 12.2804 61.5411 8.05936C61.6896 3.16218 65.0626 0.0198545 69.9402 0.00422104C73.0591 -0.0035957 76.1819 0.00422104 79.3007 0.00422104ZM74.2707 34.0617C77.1394 31.916 79.715 30.1416 82.1069 28.1523C84.1041 26.4912 86.1756 25.6275 88.8411 25.7721C91.8153 25.9323 93.8242 23.7827 93.8477 20.7967C93.8829 16.5679 93.8789 12.339 93.8516 8.11017C93.832 5.14372 92.042 3.08401 89.1107 3.03321C82.5408 2.91986 75.9708 2.92377 69.4008 3.02148C66.4031 3.06447 64.5623 5.17108 64.5427 8.2157C64.5193 11.9873 64.5349 15.7628 64.5349 19.5382C64.5349 24.1579 65.9849 25.647 70.6632 25.8307C73.0004 25.9245 74.2081 27.14 74.2629 29.5046C74.2941 30.9077 74.2707 32.3108 74.2707 34.0617Z" fill="#161717"/>
<path d="M72.8279 58.2171C77.4437 58.2171 82.0556 58.2054 86.6714 58.221C89.2704 58.2288 90.3452 59.288 90.3492 61.8636C90.3648 67.9724 90.3609 74.0812 90.3492 80.1939C90.3452 82.7656 89.2861 83.8677 86.6909 83.8755C77.3968 83.9029 68.1027 83.899 58.8086 83.8755C56.2057 83.8677 55.1348 82.7695 55.1309 80.2134C55.1191 74.1046 55.1191 67.9958 55.1309 61.8832C55.1348 59.2997 56.2057 58.2327 58.7891 58.221C63.4713 58.2054 68.1496 58.2171 72.8279 58.2171ZM72.6169 80.87C77.0373 80.87 81.4576 80.8231 85.8741 80.9013C87.1482 80.9247 87.5195 80.5847 87.5039 79.291C87.4335 73.831 87.4452 68.371 87.496 62.9111C87.5078 61.7268 87.3163 61.2031 85.9288 61.2109C77.1545 61.2774 68.3802 61.2735 59.6059 61.2148C58.3005 61.207 57.9644 61.5861 57.9801 62.8563C58.0465 68.3163 58.0621 73.7763 57.9722 79.2363C57.9488 80.6863 58.4686 80.9169 59.7506 80.8935C64.038 80.8231 68.3294 80.87 72.6169 80.87Z" fill="#161717"/>
<path d="M33.9096 39.8051C31.7561 39.6488 30.0169 38.785 28.7349 37.0731C28.1291 36.2602 27.8985 35.416 28.8522 34.7008C29.7081 34.0598 30.3608 34.4272 31.0174 35.1463C33.0967 37.4249 34.66 37.4093 36.8135 35.1111C37.4701 34.4115 38.1463 34.0442 38.9866 34.732C39.7956 35.3965 39.694 36.1664 39.1351 36.9598C37.8493 38.785 36.0553 39.6527 33.9096 39.8051Z" fill="#161717"/>
<path d="M28.9641 26.5677C29.0071 27.6579 28.8078 28.8498 27.3658 28.8107C26.0684 28.7756 25.8848 27.6501 25.8965 26.5325C25.9043 25.4188 26.0763 24.3207 27.4088 24.2972C28.7453 24.2738 28.9836 25.3602 28.9641 26.5677Z" fill="#161717"/>
<path d="M41.8705 26.5892C41.9643 27.738 41.6868 28.8049 40.3816 28.8127C39.0686 28.8205 38.8303 27.7263 38.8381 26.6087C38.8459 25.4442 38.9866 24.2367 40.4598 24.2992C41.7767 24.3578 41.9604 25.4794 41.8705 26.5892Z" fill="#161717"/>
<path d="M79.376 12.9084C82.3034 12.9084 85.2307 12.9163 88.1581 12.9045C89.2915 12.9006 90.3468 13.0531 90.3116 14.4913C90.2803 15.8202 89.2251 15.9452 88.2011 15.9452C82.2174 15.9531 76.2298 15.9531 70.2461 15.9452C69.14 15.9452 68.0222 15.7772 68.0808 14.3428C68.1316 13.0765 69.1322 12.8928 70.1992 12.9006C73.2633 12.9241 76.3197 12.9084 79.376 12.9084Z" fill="#161717"/>
<path d="M78.9847 9.40002C76.0613 9.40002 73.1378 9.38438 70.2143 9.40783C69.163 9.41565 68.1585 9.31012 68.0804 8.01255C68.0022 6.66416 69.0262 6.48828 70.0697 6.48828C76.1785 6.48437 82.2873 6.48047 88.3922 6.49219C89.3458 6.49219 90.3073 6.60944 90.319 7.87184C90.3346 9.19287 89.4357 9.41565 88.3374 9.40783C85.2225 9.38438 82.1036 9.40002 78.9847 9.40002Z" fill="#161717"/>
<path d="M72.7617 22.3204C71.7221 22.3204 70.6785 22.3282 69.6389 22.3204C68.7321 22.3126 68.1185 21.8944 68.0716 20.9603C68.0247 20.0223 68.5719 19.4947 69.4982 19.483C71.6439 19.4556 73.7935 19.4595 75.9392 19.4751C76.8576 19.483 77.4361 19.9715 77.4126 20.9134C77.3892 21.8475 76.799 22.3009 75.8845 22.3165C74.8448 22.3322 73.8052 22.3204 72.7617 22.3204Z" fill="#161717"/>
</svg>
